<svg xmlns="http://www.w3.org/2000/svg" xml:space="preserve" viewBox="0 0 6666.7 6666.7">
  <path d="m40635.6 9753.3-1739.8 1833.4-1736.4 1836.4-1734.4 1838.2-1732.4 1840.1-1730.9 1841.4-1728.8 1843.3-1725.8 1846.1-1723.8 1847.9a337863.3 337863.3 0 0 1-1730.8 1841.5c-579 611.9-1159.5 1222.5-1737.3 1835.6a160804.5 160804.5 0 0 0-1719.7 1851.6c-568 622-1130.1 1249.4-1687.7 1880.8-1114.7 1263.3-2217.9 2537.2-3305.2 3825.5a169467.4 169467.4 0 0 0-1617.7 1944.6 117841.6 117841.6 0 0 0-796.8 983.2 66392.1 66392.1 0 0 0-784.7 994.3l67.4 61.5c309.3-288 614-580 917.4-873.4a119926 119926 0 0 0 905.2-884.5 171363.8 171363.8 0 0 0 1786.3-1790.9c1182-1202 2348.2-2418.5 3502.8-3645.5 577-613.7 1149.7-1231.5 1716.3-1854.7a160803.3 160803.3 0 0 0 1684.3-1883.9c556.9-632.1 1111.1-1266.6 1666.8-1899.9a349737 349737 0 0 1 1673.1-1894l1680.3-1887.5 1678.2-1889.4 1675.2-1892.2 1673.2-1894.1 1671.6-1895.4 1669.7-1897.2 1667.6-1899.1L40703 9814.8l-67.4-61.5"
        transform="matrix(.13333 0 0 -.13333 0 6666.7)"/>
    <path d="M21586.4 37938.8c55.1-540.7 98.1-1081.4 137.3-1622.1 20.6-270.3 37.3-540.7 55.5-811.1 9.4-135.1 16.7-270.3 25-405.5l24.2-405.5c61.6-1081.4 107.7-2162.8 145.2-3244.3 37.9-1081.4 63-2162.8 80.2-3244.2 17.1-1081.4 25.3-2162.8 24.9-3244.3-.2-1081.4-8.6-2162.8-25.9-3244.2l-6.6-405.5-8-405.6c-4.9-270.3-11.9-540.7-18-811l-10.6-405.6c-3.7-135.1-6.8-270.3-11.4-405.5l-26-811c-37.6-1081.5-83.7-2162.9-145-3244.3l-24.1-405.5c-8.1-135.2-15.6-270.4-24.9-405.6-18.1-270.3-34.9-540.7-55.3-811-39-540.7-81.8-1081.4-136.5-1622.1h-57.9l-14.1 3244.2-8.1 3244.3-6.7 6488.4 6.6 6488.5 8.1 3244.3 14.2 3244.2h57.9m8864.8-25953.9c-77.1 540.7-137.3 1081.4-192.1 1622.1a74612.8 74612.8 0 0 0-146.8 1622.1c-43.1 540.7-81 1081.4-114.8 1622.1-17.4 270.4-32.3 540.7-47.8 811.1-14.1 270.3-28.9 540.7-41.2 811.1-52 1081.4-87.6 2162.8-111.7 3244.2a143811.3 143811.3 0 0 0-34.8 3244.2c.3 1081.5 12.1 2162.9 36.2 3244.3s60.4 2162.8 112.3 3244.2c12.2 270.4 27.1 540.7 41.2 811.1 15.4 270.4 30.5 540.7 47.7 811.1a96050 96050 0 0 0 114.6 1622.1 69252 69252 0 0 0 68.7 811c25.3 270.4 48.8 540.8 77.4 811.1 54.7 540.7 114.5 1081.4 191.1 1622.1h81.1l6.1-811 4.6-811.1 9.1-1622.1 11.2-3244.3 2.8-811 1.2-811.1 1.8-1622.1 3.7-3244.3-3.6-3244.2-1.9-1622.1-1-811.1-2.8-811-11.3-3244.3-9.2-1622.1-4.6-811.1-6.1-811h-81.1"

          transform="matrix(.13333 0 0 -.13333 0 6666.7)"/>
    <path d="M37977 21056.1c-540.7-51.6-1081.4-91.3-1622.1-128.8-540.7-36.6-1081.5-69-1622.2-97.9a154186.7 154186.7 0 0 0-3244.2-136.8 187752.2 187752.2 0 0 0-3244.3-75.4 217927 217927 0 0 0-3244.2-24.4c-1081.4-.4-2162.8 7.4-3244.2 23.4a186752.6 186752.6 0 0 0-3244.3 75.1c-270.3 8.2-540.7 18.2-811.1 27.7-270.3 10.4-540.7 20.4-811 32.1-540.7 22.7-1081.4 48.2-1622.1 77.2-540.7 29-1081.5 61.5-1622.2 98.3-540.7 37.6-1081.4 77.6-1622.1 129.5 540.7 52 1081.4 91.9 1622.1 129.6 540.7 36.8 1081.5 69.3 1622.2 98.3s1081.4 54.4 1622.1 77.2c270.3 11.6 540.7 21.7 811 32.1 270.4 9.4 540.8 19.4 811.1 27.7 1081.4 34.9 2162.8 58.9 3244.3 75a220668.1 220668.1 0 0 0 6488.4-.9c1081.5-16.2 2162.9-40.6 3244.3-75.5a154185.6 154185.6 0 0 0 3244.2-136.7c540.7-28.9 1081.5-61.3 1622.2-97.9 540.7-37.5 1081.4-77.2 1622.1-128.9M14588.5 31266.7c467.1 77 934.2 137.2 1401.3 192.1a56388 56388 0 0 0 1401.3 146.8c467.1 43.1 934.2 81 1401.3 114.8 233.6 17.3 467.1 32.3 700.7 47.8 233.5 14.1 467.1 28.9 700.7 41.2 934.2 52 1868.4 87.6 2802.6 111.6 934.2 23.9 1868.4 35.4 2802.6 34.9a110054 110054 0 0 0 2802.7-36.3 94411.2 94411.2 0 0 0 2802.6-112.2c233.5-12.2 467.1-27.2 700.6-41.2 233.6-15.4 467.1-30.5 700.7-47.7 467.1-33.8 934.2-71.6 1401.3-114.6 233.6-21.7 467.1-43.9 700.7-68.8 233.5-25.3 467.1-48.8 700.6-77.4 467.1-54.6 934.2-114.5 1401.3-191v-81.1l-700.6-6.1-700.7-4.6-1401.3-9.1-2802.6-11.3-700.7-2.8-700.6-1.1-1401.3-1.9-2802.7-3.6-2802.6 3.6-1401.3 1.8-700.7 1.1-700.6 2.8-2802.7 11.3-1401.3 9.1-700.7 4.6-700.6 6.2v81.1m4973.3 3852.2-61.9 226.1 35.1 69.5-70.1 134.3c4.4 11.4 5.7 28.1 3.7 49.9a56.5 56.5 0 0 1-20.1 39.7l-156.8 85.1-61.2 126.8-67.7 19.5-35.1 112.5-222.5 169.9-132.2 87.3-47-29.2c-135.7 94.1-376.4 160.8-722.4 200.5-43.8-4-71.4-4-82.8.1l-41.4.4-152.1 26.1-78.3-51.1c-84.8 19.9-135.3 29.2-151.8 27.7-5.5-.5-25.4-9.3-59.8-26.2-34.5-17-65.3-26.6-92.7-29.1l-65.7-6c-32.5-68.6-117.8-134.3-255.8-197.2l-108.4 6.8-110-68-149.5 3a4117 4117 0 0 0-323.8-269.7l-35.9-61.3-24.7-184.5-181.7-99.4-29.2-44.1a699.2 699.2 0 0 0-115.1-192.8l12.6-139.7-110.6-59.8-23.2-18.7-51.6-253.3-109.2-76.2c8.9-281-20.1-479.8-86.8-596.3-38.5-64.4-55.7-148.8-51.7-253.4l-24.7-93.4 29.9-55.3 35.9-121.1 108.4-97.9 26.1-105.4 89.7-74.8c161.6-73.8 302.9-108 424.1-102.4l337.3 121.7 80.7-67.3 98.8 9 15.4 13.2 240.6 71.2 266.9-20.5a214.1 214.1 0 0 0 150.2 80c119 88 222.2 136.1 310 144.1l163.5 114.3 130.7 20.1 99.3 91.9 254 31.3a313.6 313.6 0 0 0 73.1 14.9l14.2 26.1c33.3 58.2 87.6 99.1 162.8 122.5l77.8 239.2 69.4-35.2 62.8 38.8 105.2 117.3 42.4-9.5 131.2 110.7 225.2 268.7 104.4 42.6 38.3 127.6 62.3 47.1-23.1 72.3zm612.3 103.7-66.6-180.1-8.3-274.3-75.5-81.4c-13-222.3-85.4-369.7-216.9-442.4l-55.3-29.8-462-390-140.5-95.6-214.6-284.7-150.2 11.2-84.4-73.9-159.2-72.5-391.7-251c-33.9 8-80.1 28.7-138.3 62.1-33.4-58.3-90.4-99.4-171.2-123.2l-32.8-3-152.5-146.5-34.4 13.5-156.2-14.1-68.8-64.3-313.1-20.1-403.6-119.4-49.4-4.5-139.7-12.7-233.2 12.1-44.8 37.3-333.3 19.6-145.7 53.1-197.3-17.9-8.2 90.4-171.1 150.3-213.8 71.8-113.5 246.7-25.3 188.3-54.6 53.1-41.7 369.2 77.1 338.5-17.9 197.3 20.9 43.3-14.1 156.2 104.6 125.6-7.4 82.2 41.1 94.9-7.4 82.2 29.1 44.1-49.3 86.7 123.4 102.3 126.4 343 293.1 515.6 78.5 48.6c14 28.8 35.4 66.6 64.3 113.5l76.2 73.3-11.9 131.5 121.1 35.8a877.2 877.2 0 0 0 257.9 172.6l36.6 53c47.4 26.3 187.3 66.7 420.1 121l219 53 266-9.1 156.2 14.2 222 20.1 49.3 4.5 24.7 2.2 41.1 3.7 49.3 4.5 263.7 16.8-12.6-43.8 126.3-21.7c31.6 16.6 45.6 45.6 41.9 86.7 32.3-52.8 95.1-74.8 188.3-66.4l72.5-67.5 246.6 22.4 572.4-188.5 82.1-174.9 56.1-69.6 153.2-44.1 254.7-341.6 146.4-152.5c179.3-331.9 271.9-530.7 277.9-596.5l8.2-90.4m7757-9601.9 35.4 231.7 60.4 49.2-9.5 151.2c8.7 8.6 16.7 23.3 23.8 44.1a56.4 56.4 0 0 1-2.3 44.4l-108.6 141.5-4.4 140.8-53.9 45.3 13.8 117-134.1 245.8-85.3 133.5-54.8-7.5c-85.7 141.1-278.4 300-578.4 476.9-41.6 14.2-66.8 25.4-75.5 33.8l-37.8 17.3-128.3 85.7-92.3-14.9c-69.4 52.7-111.8 81.8-127.4 87.1-5.2 1.8-27 1.8-65.3.4-38.4-1.5-70.5 2.3-96.5 11.1l-62.5 21.3c-57.6-49.4-162.2-74.8-313.9-76.1l-96.2 50.3-128.2-17.4-135.3 63.6a4157.6 4157.6 0 0 0-405.5-114.7l-57.7-41.3-97.7-158.6-206.4-16.8-44.6-28.4a698 698 0 0 0-183.6-129.3l-45.3-132.8-125.4-9.6-28.7-7.6-150.3-210.4-130.7-25.2c-106.2-260.4-213.5-430.2-321.9-509.5-61.4-43.1-111.4-113.3-150.3-210.4l-60.5-75.3 4.8-62.7-16.6-125.2 59.3-133.5-19-106.9 51.5-104.8c117.6-133.2 232.7-221.9 345.7-266.1l357.7-26.1 46.3-94.3 93.9-32 19.4 5.8 248.9-32.8 235.4-127.3a213.7 213.7 0 0 0 169.7 11.9c144.5 32.1 258.4 34 341.8 5.6l195.9 37.9 127.6-34.8 128.1 43.5 244.7-74.7c22.5-1.9 46.9-7.2 72.8-16.1l23.7 18.1c54.1 39.6 120.3 54.9 198.6 45.7l168.3 186.8 49.1-60.4 73.1 10 143.9 64.3 34.8-25.9 164.9 47.7 315.1 153.8 112.7-3.5 86.9 100.9 76 17.7 8.3 75.5zm601.5-154.4-134.1-137.5-119.2-247.1-102.1-43.7c-102.3-197.8-228.4-303-378-315.9l-62.7-4.8-580.7-168.3-167.2-30.2-311.9-172.7-132.6 71.4-107.3-33.3-174.9-1.4-459.9-69.9c-27.7 21-61.5 58.7-101 112.9-54.3-39.6-123.1-53.9-206.5-42.9l-31.3 10.6-198.9-71.7-25.9 26.3-148.4 50.6-89-30.7-294.2 109-417.3 55.1-46.9 16-132.8 45.3-208.1 105.8-25.8 52.4-296.5 153.4-111.5 107.8-187.5 64 29.3 85.9-95.2 206.9-166 152.5-3.4 271.5 53.5 182.4-28.3 70.7 112.1 354.2 208.1 277.9 64 187.5 36.7 31.1 50.6 148.4 146.7 72.1 26.6 78.1 76.2 70 26.7 78.1 44.5 28.4-9.7 99.3 154.3 43.3 255 261.9 477.5 351.8 91.4 12.4c24.5 20.7 59.5 46.5 105 77.6l99.4 35.9 42.7 125 125.2-16.6a875.9 875.9 0 0 0 305.7 52.8l55.1 33.5c53.9 4.8 198.2-15.2 432.9-60.4l221.6-40.6 239.4-116.5 148.4-50.6 211-72 46.8-16 23.5-7.9 39-13.4 46.9-16 247.8-91.9-29.4-34.9 106.6-71.2c35.6 2.3 60.2 23.1 73.5 62.2 8.1-61.4 56.4-107 145.1-137.2l38.7-91.2 234.4-79.9 446.2-405.1 3.9-193.2 22.9-86.3 122-102.6 93.7-415.7 71.7-198.9c28.8-376.1 32.5-595.4 11.2-657.9l-29.3-85.9m7414.8-10301.6 128 196.4 75.3 19.9 53.8 141.6c11.5 4.3 24.9 14.4 39.9 30.3a56.4 56.4 0 0 1 16.2 41.4l-40.4 173.8 54.2 129.9-30.3 63.6 60.9 100.9-20.6 279.2-22.5 156.8-53 15.8c-19.7 163.9-129.6 388.3-329.6 673.4-32.1 30.1-50.4 50.7-54.9 62l-27.2 31.2-81.4 131.1-90.2 24.6c-41.4 76.7-68.1 120.6-80.1 131.9-4 3.8-23.8 12.9-59.2 27.4-35.6 14.5-63.3 31.2-83.3 50l-48.1 45.2c-72.9-21.2-178.7-1.1-317.3 60.4l-66.9 85.6-123.9 37.1-96.9 113.8a4125.6 4125.6 0 0 0-416.7 63.2l-69.6-13.9-154.5-104-195 70-52.3-7.5a699.9 699.9 0 0 0-220.6-41.8l-96.1-102.2-118.2 43-29.3 5-223.8-129.6-129.4 31.1c-204.3-193.2-372.2-303.5-503.7-330.9-73.6-14-148.2-57.1-223.7-129.5l-86.3-43.6-21.5-59-66.8-107.2-1.2-146.1-61.5-89.5 3.6-116.7c52-169.8 120.2-298.2 204.8-385.2l315-171.5 3.3-105 72.2-68 20.1-2.7 213-132.7 161.8-213.2a214.2 214.2 0 0 0 159.5-59.3c144.9-30.5 249.4-75.8 313.5-136.1l194.1-46.5 101.8-84.4 134.6-13.3 192-169.2c19.7-11 39.7-25.9 59.7-44.7l29 6.7c65.6 13.7 132.3.3 199.7-40.5l230.5 100.6 19.7-75.2 70.8-21.2 157.6-.9 20.9-38 170-24.6 350.4 9.8 101.2-49.7 120.8 56 76.6-15.4 38.7 65.4zm483.9-389.1-178.9-69.7-210.6-175.9-111 2.5c-174.9-137.8-333.2-181.6-474.8-131.5l-59.1 21.5-598.3 86.7-164.8 41.6-355.4-28.4-91.3 119.8-111.3 14.1-159.9 71-447.7 126.3c-16.6 30.6-31.7 78.9-45.4 144.6-65.8-13.7-134.3 1.7-205.8 46.2l-24 22.6-210.8 16.9-12.7 34.6-114.3 107.5-93.7 8.8-222.9 220.8-357.2 222.6-36.1 33.9-102.3 96.2-145.7 182.3-1.8 58.4-206.7 262.2-57 144.3-144.3 135.7 62.2 66.1-1.2 227.7-88.2 207.5 109.2 248.7 124 143.9 3.5 76.1 248.4 276.3 304.4 167 135.7 144.4 46.3 13.1 107.4 114.2 163.4 5.1 56.5 60.1 98.3 32.3 56.6 60.1 52.3 7.4 32.1 94.5 158.4-24.4 340.5 133.2 580.1 123 88.4-26.5c30.9 8.7 73.4 17.8 127.7 27.3l105.4-8.4 90.4 96.2 107.2-66.8a875.1 875.1 0 0 0 300.2-78.3l64 7.8c51.1-17.9 174.3-95.8 369.3-233.9l185-128.6 169.9-205 114.2-107.4 162.4-152.7 36.1-33.9 18-16.9 30.1-28.3 36.1-33.9 187.6-186.1-41.1-19.7 67.6-108.8c33.4-12.7 64.3-3.9 92.6 26.2-18-59.2 7.2-120.8 75.4-184.9l-2.4-99 180.4-169.6 239-553.3-76.3-177.5-14.8-88.1 68.7-143.8-86.4-417.3-16.9-210.8c-129.2-354.3-216.4-555.6-261.7-603.7l-62.2-66.2m-17026 9639.6c0-210.5-177.2-340.6-531.6-390.4l-166.1 49.8c-27.8-11.2-63.7-16.6-108-16.6-38.8 0-83.1 11-132.9 33.2-49.9 22.1-91.4 33.2-124.6 33.2-166.2 5.5-296.3 63.7-390.4 174.5l-16.7 8.3c-105.2 33.2-204.9 94.1-299 182.8l-124.6 74.7-141.2 132.9-166.1 191.1-373.8 398.7-191.1 307.4-16.6 41.5c-33.2-49.9-66.5-108-99.7-174.5l-116.3-16.6-290.7-232.6-149.6-107.9-99.6-182.8-598.1-440.3-116.3-191-249.2-91.4-91.4-99.7-99.7-8.3-182.7-191-116.3-41.6-124.6-74.7-49.9-16.6-33.2-41.6c-77.6-94.1-152.4-141.2-224.3-141.2-149.5 0-224.3 91.3-224.3 273.6 155.1 116.2 252.1 221.2 290.8 315.2l66.4 16.6c0 5.4 5.5 35.9 16.6 91.2 171.6 49.7 282.5 141 332.3 273.6l182.8 82.9 74.7 58.1c44.3 27.5 108 96.7 191.1 207.3l182.7 99.5 99.7 116c66.5 22.1 102.4 69.1 108 141l141.2 33.2 157.8 174.1v82.9l141.3 74.6 74.7 174.2 108 8.3 99.7 149.3 91.4 24.8 8.3 66.4 124.6 82.9c-61 127.1-130.2 226.6-207.7 298.5l-74.8 82.9c-27.7 27.7-66.4 77.4-116.3 149.3l-41.5 74.6-124.6 99.6-315.6 331.6-66.5 99.5-91.4 91.3-182.7 82.9c-288 182.4-432 364.7-432 547.2 0 27.7 5.5 58 16.6 91.3l66.5 24.9 24.9 107.7 199.4 83 274.1-33 116.3-115.5 182.7-8.2 58.2-107.3 91.4-41.2 49.8-123.8 108-41.2 83.1-123.8 174.4-82.4v-173.3l265.8-247.4 33.2-82.5h33.3l157.8-216 83.1-207.7 66.4-49.8c66.5 66.5 132.9 116.3 199.4 149.5l41.5 74.8v49.8l249.2 216 140.9 160.8 44 72.3 100.3 146.9 171.7 176.6 33.2 91.3a3867 3867 0 0 1 91.4 99.7 9362 9362 0 0 1 24.9 132.9l174.5 232.6 124.6 116.3 199.3 41.5c210.4-55.4 315.7-185.6 315.7-390.4 0-33.2-38.8-121.8-116.3-265.8-38.8-38.8-85.9-99.7-141.2-182.7v-49.9l-25.2-49.8h-42.1l-58.9-106.3-50.5-32.7-124.6-124.6-64.2-85.3-33.6-106.8-75.7-32.9-33.6-90.3-92.6-57.5c-33.6-21.9-67.2-63.1-100.8-123.3-33.6-60.2-64.4-104.1-92.4-131.4l-50.5-16.4-109.3-156-128-121.9-90.2-132.9-65.5-41.6 83.3-116.1 66.7-157.9a19376 19376 0 0 0 183.4-207.5l208.4-257.5 25-99.6 208.4-149.5 165.2-167 157.6-66.9 157.7-142.1a6586.8 6586.8 0 0 0 290.4-100.3h99.5l41.4 49.8 83.1 157.8c116-22.1 246.1-83 389.9-182.7 99.4-88.7 149.2-171.7 149.2-249.2m831.8-9460.9c0-210.6-177.3-340.6-531.6-390.4l-166.2 49.8c-27.8-11.2-63.7-16.6-108-16.6-38.8 0-83 11-132.9 33.2-49.8 22.1-91.3 33.2-124.6 33.2-166.1 5.5-296.3 63.6-390.4 174.5l-16.6 8.3c-105.3 33.2-204.9 94.1-299.1 182.7l-124.6 74.8-141.2 132.9-166.1 191.1-373.8 398.7-191.1 307.3-16.6 41.6a1649 1649 0 0 1-99.7-174.5l-116.3-16.6-290.7-232.6-149.5-108-99.7-182.7-598.1-440.3-116.3-191-249.2-91.4-91.4-99.7-99.6-8.3-182.8-191-116.3-41.6-124.6-74.7-49.8-16.7-33.3-41.5c-77.6-94.1-152.3-141.2-224.2-141.2-149.6 0-224.3 91.2-224.3 273.6 155.1 116.2 252 221.2 290.7 315.1l66.5 16.6c0 5.5 5.4 36 16.6 91.3 171.6 49.7 282.4 141 332.3 273.6l182.7 82.9 74.8 58.1c44.2 27.5 108 96.7 191 207.2l182.8 99.6 99.7 116c66.4 22.1 102.4 69.1 107.9 141l141.3 33.2 157.8 174.1v82.9l141.2 74.6 74.8 174.2 108 8.3 99.6 149.3 91.4 24.8 8.3 66.4 124.6 82.8c-61 127.2-130.2 226.7-207.7 298.6l-74.7 82.9c-27.8 27.6-66.5 77.4-116.3 149.3l-41.5 74.6-124.6 99.6-315.7 331.6-66.5 99.5-91.3 91.3-182.8 82.9c-288 182.4-431.9 364.7-431.9 547.2 0 27.7 5.4 58 16.6 91.3l66.4 24.9 25 107.7 199.3 82.9 274.1-32.9 116.3-115.5 182.8-8.2 58.1-107.4 91.4-41.1 49.8-123.8 108-41.2 83.1-123.8 174.4-82.4v-173.3l265.9-247.4 33.2-82.5h33.2l157.8-216 83.1-207.7 66.5-49.8c66.4 66.4 132.9 116.3 199.3 149.5l41.6 74.8v49.8l249.2 216 140.8 160.8 44 72.3 100.3 146.9 171.7 176.5 33.3 91.4a4175 4175 0 0 1 91.3 99.7c5.5 27.6 13.8 71.9 25 132.9l174.4 232.6 124.6 116.3 199.4 41.5c210.4-55.4 315.6-185.6 315.6-390.4 0-33.2-38.8-121.9-116.3-265.8-38.8-38.8-85.9-99.7-141.2-182.8v-49.8l-25.2-49.8h-42l-58.9-106.3-50.5-32.7-124.6-124.6-64.3-85.3-33.6-106.8-75.7-32.9-33.6-90.3-92.5-57.5c-33.6-21.9-67.3-63.1-100.9-123.3-33.6-60.2-64.3-104.1-92.4-131.4l-50.5-16.5-109.3-156-127.9-121.8-90.2-132.9-65.6-41.6 83.3-116.1 66.8-157.9a18895 18895 0 0 0 183.3-207.5l208.5-257.5 24.9-99.6 208.5-149.5 165.2-167 157.6-66.9 157.7-142.1a6545.6 6545.6 0 0 0 290.3-100.3h99.6l41.4 49.8 83 157.8c116.1-22.2 246.1-83 389.9-182.7 99.5-88.7 149.3-171.7 149.3-249.2m8284.8-339.2c0-210.5-177.3-340.6-531.6-390.4l-166.1 49.8c-27.8-11.1-63.8-16.6-108-16.6-38.8 0-83.1 11-132.9 33.2-49.9 22.1-91.4 33.3-124.6 33.3-166.2 5.4-296.4 63.6-390.5 174.4l-16.6 8.3c-105.2 33.2-204.9 94.1-299 182.8l-124.6 74.7-141.2 132.9-166.2 191.1-373.8 398.7-191 307.4-16.6 41.5c-33.3-49.8-66.5-108-99.7-174.4l-116.3-16.7-290.8-232.5-149.5-108-99.7-182.8-598.1-440.2-116.2-191.1-249.3-91.4-91.3-99.7-99.7-8.3-182.8-191-116.2-41.5-124.6-74.8-49.9-16.6-33.2-41.6c-77.6-94.1-152.4-141.2-224.3-141.2-149.5 0-224.3 91.3-224.3 273.6 155.1 116.2 252.1 221.2 290.7 315.2l66.5 16.6c0 5.4 5.5 35.9 16.6 91.2 171.6 49.7 282.5 141 332.3 273.6l182.7 83 74.8 58c44.3 27.5 108 96.7 191.1 207.3l182.7 99.5 99.7 116.1c66.4 22 102.4 69 108 140.9l141.2 33.2 157.8 174.1v82.9l141.2 74.7 74.8 174.1 108 8.3 99.7 149.3 91.3 24.8 8.4 66.5 124.6 82.8c-61.1 127.2-130.2 226.6-207.7 298.5l-74.8 82.9c-27.8 27.7-66.4 77.4-116.3 149.3l-41.5 74.6-124.6 99.6-315.7 331.6-66.4 99.6-91.4 91.2-182.8 82.9c-288 182.4-431.9 364.7-431.9 547.2 0 27.7 5.4 58.1 16.6 91.3l66.5 24.9 24.9 107.7 199.3 83 274.2-33 116.3-115.5 182.7-8.2 58.2-107.3 91.3-41.2 49.9-123.8 108-41.1 83-123.9 174.5-82.4v-173.3l265.8-247.3 33.2-82.6h33.3l157.8-216 83-207.6 66.5-49.9c66.5 66.5 132.9 116.3 199.4 149.5l41.5 74.8v49.8l249.2 216 140.8 160.8 44 72.3 100.4 147 171.7 176.5 33.2 91.4c11 11 41.5 44.2 91.4 99.6 5.4 27.7 13.7 71.9 24.9 132.9l174.4 232.6 124.6 116.3 199.4 41.6c210.4-55.5 315.7-185.6 315.7-390.5 0-33.2-38.8-121.8-116.3-265.8-38.8-38.8-86-99.7-141.2-182.7v-49.9l-25.2-49.8h-42.1l-58.9-106.3-50.5-32.7-124.6-124.6-64.2-85.3-33.7-106.8-75.6-32.8-33.6-90.4-92.6-57.5c-33.6-21.9-67.2-63.1-100.8-123.3-33.7-60.2-64.4-104.1-92.5-131.3l-50.4-16.5-109.3-156-128-121.9-90.2-132.9-65.6-41.6 83.4-116.1 66.7-157.8a20132 20132 0 0 0 183.4-207.6l208.4-257.5 24.9-99.5 208.5-149.6 165.2-167 157.6-66.9 157.7-142.1a6545.6 6545.6 0 0 0 290.3-100.3h99.6l41.4 49.8 83.1 157.9c116-22.2 246-83.1 389.9-182.8 99.4-88.6 149.2-171.7 149.2-249.2m8494.7 10102.2c0-210.6-177.3-340.6-531.6-390.5l-166.2 49.9c-27.7-11.2-63.7-16.6-107.9-16.6-38.8 0-83.1 11-132.9 33.2-49.9 22.1-91.4 33.2-124.6 33.2-166.2 5.5-296.4 63.6-390.5 174.5l-16.6 8.3c-105.2 33.2-204.9 94.1-299 182.7l-124.6 74.8-141.2 132.9-166.2 191-373.8 398.8-191 307.3-16.7 41.6c-33.2-49.9-66.4-108-99.6-174.5l-116.3-16.6-290.8-232.6-149.5-108-99.7-182.7-598.1-440.3-116.3-191-249.2-91.4-91.3-99.7-99.7-8.3-182.8-191.1-116.3-41.5-124.6-74.8-49.8-16.6-33.2-41.5c-77.6-94.1-152.4-141.2-224.3-141.2-149.5 0-224.3 91.2-224.3 273.6 155.1 116.1 252.1 221.1 290.8 315.1l66.4 16.6c0 5.5 5.5 36 16.6 91.3 171.6 49.7 282.4 140.9 332.3 273.6l182.7 82.9 74.8 58c44.3 27.6 108 96.7 191.1 207.3l182.7 99.6 99.7 116c66.4 22.1 102.4 69.1 108 141l141.2 33.2 157.8 174v83l141.2 74.6 74.8 174.2 108 8.3 99.7 149.3 91.3 24.8 8.3 66.4 124.6 82.8c-61 127.2-130.1 226.6-207.6 298.5l-74.8 83c-27.8 27.6-66.4 77.3-116.3 149.2l-41.5 74.7-124.6 99.5-315.7 331.6-66.4 99.6-91.4 91.2-182.8 83c-288 182.3-431.9 364.7-431.9 547.2 0 27.6 5.5 58 16.6 91.2l66.5 25 24.9 107.7 199.3 82.9 274.2-32.9 116.3-115.6 182.7-8.1 58.2-107.4 91.3-41.1 49.9-123.8 108-41.2 83-123.8 174.5-82.4v-173.3l265.8-247.4 33.2-82.5h33.2l157.9-216 83-207.7 66.5-49.8c66.4 66.4 132.9 116.3 199.4 149.5l41.5 74.8v49.8l249.2 216 140.8 160.8 44 72.3 100.4 146.9 171.7 176.5 33.2 91.4c11 11 41.5 44.3 91.4 99.7a13065 13065 0 0 1 24.9 132.9l174.4 232.6 124.6 116.3 199.4 41.5c210.4-55.4 315.7-185.6 315.7-390.4 0-33.2-38.8-121.9-116.3-265.8-38.8-38.8-86-99.7-141.3-182.8v-49.8l-25.1-49.9h-42.1l-58.9-106.3-50.5-32.7-124.6-124.6-64.2-85.2-33.7-106.9-75.6-32.8-33.6-90.3-92.6-57.5c-33.6-22-67.2-63.1-100.8-123.3-33.7-60.3-64.4-104.1-92.5-131.4l-50.4-16.5-109.3-156-128-121.9-90.2-132.9-65.6-41.5 83.4-116.2 66.7-157.8c88.9-99.7 150-168.9 183.4-207.5l208.4-257.5 24.9-99.6 208.5-149.5 165.2-167.1 157.6-66.8 157.7-142.1a6570.3 6570.3 0 0 0 290.3-100.4h99.6l41.4 49.9 83.1 157.8c116-22.2 246-83.1 389.9-182.7 99.4-88.7 149.2-171.8 149.2-249.2m960.4 9310.6c0-210.5-177.3-340.6-531.6-390.4l-166.2 49.8c-27.8-11.2-63.7-16.6-108-16.6-38.8 0-83 11-132.9 33.2-49.8 22.1-91.4 33.2-124.6 33.2-166.1 5.5-296.3 63.6-390.4 174.5l-16.6 8.3c-105.3 33.2-205 94.1-299.1 182.7l-124.6 74.8-141.2 132.9-166.1 191.1-373.8 398.7-191.1 307.3-16.6 41.6a1649 1649 0 0 1-99.7-174.5l-116.3-16.6-290.7-232.6-149.5-108-99.7-182.7-598.1-440.3-116.3-191-249.2-91.4-91.4-99.7-99.6-8.3-182.8-191-116.3-41.6-124.6-74.7-49.8-16.7-33.3-41.5c-77.6-94.1-152.3-141.2-224.2-141.2-149.6 0-224.3 91.2-224.3 273.6 155.1 116.2 252 221.2 290.7 315.1l66.5 16.7c0 5.4 5.4 35.9 16.6 91.2 171.6 49.7 282.4 141 332.3 273.6l182.7 82.9 74.8 58.1c44.2 27.5 108 96.7 191 207.2l182.8 99.6 99.6 116c66.5 22.1 102.5 69.1 108 141l141.2 33.2 157.9 174.1v82.9l141.2 74.6 74.8 174.2 107.9 8.3 99.7 149.3 91.4 24.8 8.3 66.4 124.6 82.8c-61 127.2-130.2 226.7-207.7 298.6l-74.7 82.9c-27.8 27.7-66.5 77.4-116.3 149.3l-41.5 74.6-124.7 99.6-315.6 331.6-66.5 99.5-91.3 91.3-182.8 82.9c-288 182.4-431.9 364.7-431.9 547.2 0 27.7 5.4 58 16.6 91.3l66.4 24.9 24.9 107.7 199.4 82.9 274.1-32.9 116.3-115.5 182.8-8.2 58.1-107.4 91.4-41.1 49.8-123.8 108-41.2 83.1-123.8 174.4-82.4v-173.3l265.9-247.4 33.2-82.5h33.2l157.8-216 83.1-207.7 66.5-49.8c66.4 66.5 132.9 116.3 199.3 149.5l41.6 74.8v49.8l249.2 216 140.8 160.8 44 72.3 100.3 146.9 171.7 176.6 33.3 91.3a4175 4175 0 0 1 91.3 99.7c5.5 27.7 13.8 71.9 25 132.9l174.4 232.6 124.6 116.3 199.4 41.5c210.4-55.4 315.6-185.6 315.6-390.4 0-33.2-38.8-121.9-116.3-265.8-38.8-38.8-85.9-99.7-141.2-182.7v-49.9l-25.2-49.8h-42l-58.9-106.3-50.5-32.7-124.6-124.6-64.3-85.3-33.6-106.8-75.7-32.9-33.6-90.3-92.5-57.5c-33.7-21.9-67.3-63.1-100.9-123.3-33.6-60.2-64.4-104.1-92.4-131.4l-50.5-16.4-109.3-156.1-128-121.8-90.1-132.9-65.6-41.6 83.3-116.1 66.7-157.9c89-99.6 150.1-168.8 183.4-207.5l208.5-257.5 24.9-99.6 208.4-149.5 165.3-167 157.6-66.9 157.7-142.1a6545.6 6545.6 0 0 0 290.3-100.3h99.5l41.4 49.8 83.1 157.8c116.1-22.2 246.1-83 389.9-182.7 99.4-88.7 149.3-171.7 149.3-249.2m-9303.6-788.9c0-210.5-177.2-340.6-531.6-390.4l-166.1 49.8c-27.8-11.1-63.7-16.6-108-16.6-38.8 0-83.1 11.1-132.9 33.2-49.9 22.1-91.4 33.3-124.6 33.3-166.2 5.4-296.3 63.6-390.4 174.4l-16.7 8.3c-105.2 33.3-204.9 94.1-299 182.8l-124.6 74.7-141.2 132.9-166.2 191.1-373.8 398.7-191 307.4-16.6 41.5c-33.2-49.8-66.5-108-99.7-174.4l-116.3-16.6-290.7-232.6-149.6-108-99.6-182.8-598.1-440.2-116.3-191.1-249.2-91.4-91.4-99.6-99.7-8.4-182.7-191-116.3-41.5-124.6-74.8-49.9-16.6-33.2-41.5c-77.6-94.2-152.4-141.3-224.3-141.3-149.5 0-224.3 91.3-224.3 273.6 155.1 116.2 252.1 221.2 290.8 315.2l66.4 16.6c0 5.4 5.5 35.9 16.6 91.2 171.6 49.7 282.5 141 332.3 273.6l182.8 83 74.7 58c44.3 27.5 108 96.7 191.1 207.3l182.7 99.5 99.7 116.1c66.5 22 102.4 69 108 140.9l141.2 33.2 157.8 174.1v82.9l141.3 74.7 74.7 174.2 108 8.3 99.7 149.2 91.4 24.8 8.3 66.5 124.6 82.8c-61 127.2-130.2 226.6-207.7 298.5l-74.8 82.9c-27.7 27.7-66.4 77.4-116.3 149.3l-41.5 74.6-124.6 99.6-315.7 331.6-66.4 99.6-91.4 91.2-182.7 82.9c-288 182.4-432 364.8-432 547.3 0 27.6 5.5 58 16.6 91.2l66.5 24.9 24.9 107.7 199.4 83 274.1-33 116.3-115.5 182.7-8.2 58.2-107.3 91.4-41.2 49.8-123.8 108-41.1 83.1-123.8 174.4-82.5v-173.2l265.8-247.4 33.2-82.6h33.3l157.8-216 83.1-207.6 66.4-49.9c66.5 66.5 132.9 116.3 199.4 149.6l41.5 74.7v49.9l249.2 215.9 140.8 160.8 44.1 72.3 100.3 147 171.7 176.5 33.2 91.4c11.1 11 41.6 44.2 91.4 99.6 5.4 27.7 13.8 71.9 24.9 133l174.5 232.5 124.6 116.3 199.3 41.6c210.4-55.5 315.7-185.6 315.7-390.4 0-33.3-38.8-121.9-116.3-265.9-38.8-38.8-85.9-99.6-141.2-182.7v-49.9l-25.2-49.8h-42.1l-58.9-106.3-50.5-32.7-124.6-124.6-64.2-85.3-33.6-106.8-75.7-32.8-33.6-90.4-92.6-57.5c-33.6-21.9-67.2-63.1-100.8-123.3-33.6-60.2-64.4-104.1-92.4-131.3l-50.5-16.5-109.3-156-128-121.9-90.2-132.9-65.5-41.5 83.3-116.2 66.7-157.8a20132 20132 0 0 0 183.4-207.6l208.4-257.5 25-99.5 208.4-149.6 165.2-167 157.6-66.8 157.7-142.2a6586.8 6586.8 0 0 0 290.4-100.3h99.5l41.4 49.8 83.1 157.9c116-22.2 246.1-83.1 389.9-182.8 99.4-88.6 149.2-171.7 149.2-249.2"

          transform="matrix(.13333 0 0 -.13333 0 6666.7)"/>
</svg>