<svg xmlns="http://www.w3.org/2000/svg" version="1.1" viewBox="0 0 816 828" xml:space="preserve">
  <style>
    .st0{fill:#100030;} .st1{opacity:0.1;fill:#FFFFFF;} .st2{fill:#FF9700;} .st3{opacity:0.1;} .st4{fill:#FFFFFF;}
  </style>
  <circle cx="408.5" cy="414.5" r="386.5" class="st0"/>
  <path d="M159 567a400 400 0 01576-359 386 386 0 10-537 531c-25-52-39-111-39-172z" class="st1"/>
  <path d="M425 520v-91c-104 0-104-156 0-156v-91c-225 0-225 338 0 338z" class="st2"/>
  <path d="M389 306v90c104 1 104 157 0 157v91c225 0 225-338 0-338zM548 220c6 0 11-5 11-11s-5-11-11-11h-30v-16h-36c-23 0-42 19-42 42v7c0 23 19 42 42 42h36v-16h30c6 0 11-5 11-11 0-7-5-12-11-12h-30v-14h30zM294 595v7c0 23 19 42 42 42h36v-91h-36c-23 0-42 19-42 42zm38 19c0 3-2 6-6 6h-2c-3 0-6-3-6-6v-32c0-3 3-5 6-5h2c4 0 6 2 6 5v32zm14-32c0-3 2-5 6-5h2c3 0 6 2 6 5v32c0 3-3 6-6 6h-2c-4 0-6-3-6-6v-32z" class="st2"/>
  <path d="M409 734a320 320 0 01-298-197 320 320 0 0170-354 321 321 0 01354-70 324 324 0 01-126 621zm0-610a287 287 0 101 575 287 287 0 00-1-575z" class="st2"/>
  <g class="st3">
    <path d="M425 190v-8c-90 0-144 54-162 119 44-49 99-88 162-111z" class="st4"/>
    <path d="M160 554a287 287 0 01398-388h3c22 0 44 2 64 5a321 321 0 00-444 12 322 322 0 00-18 437 427 427 0 01-3-66z" class="st4"/>
  </g>
</svg>