<svg xmlns="http://www.w3.org/2000/svg" viewBox="0 0 64 64">
    <path fill="#2488ff" d="M46 32h-8a29.469 29.469 0 00-.8-7 14.09 14.09 0 004.59-3A13.931 13.931 0 0146 32z"/>
    <path fill="#57a4ff" d="M38 32h8a13.931 13.931 0 01-4.21 10 14.09 14.09 0 00-4.59-3 29.469 29.469 0 00.8-7zM38 32H26a29.469 29.469 0 01.8-7 14.02 14.02 0 0010.4 0 29.469 29.469 0 01.8 7z"/>
    <path fill="#2488ff" d="M26 32h12a29.469 29.469 0 01-.8 7 14.02 14.02 0 00-10.4 0 29.469 29.469 0 01-.8-7z"/>
    <path fill="#57a4ff" d="M32 18a13.971 13.971 0 019.79 4 14.09 14.09 0 01-4.59 3c-1.04-4.19-2.98-7-5.2-7z"/>
    <path fill="#2488ff" d="M37.2 39a14.09 14.09 0 014.59 3A13.971 13.971 0 0132 46c2.22 0 4.16-2.81 5.2-7zM32 18c2.22 0 4.16 2.81 5.2 7a14.02 14.02 0 01-10.4 0c1.04-4.19 2.98-7 5.2-7z"/>
    <path fill="#57a4ff" d="M37.2 39c-1.04 4.19-2.98 7-5.2 7s-4.16-2.81-5.2-7a14.02 14.02 0 0110.4 0zM32 18c-2.22 0-4.16 2.81-5.2 7a14.09 14.09 0 01-4.59-3A13.971 13.971 0 0132 18z"/>
    <path fill="#2488ff" d="M26.8 39c1.04 4.19 2.98 7 5.2 7a13.971 13.971 0 01-9.79-4 14.09 14.09 0 014.59-3zM22.21 22a14.09 14.09 0 004.59 3 29.469 29.469 0 00-.8 7h-8a13.931 13.931 0 014.21-10z"/>
    <path fill="#57a4ff" d="M26.8 39a14.09 14.09 0 00-4.59 3A13.931 13.931 0 0118 32h8a29.469 29.469 0 00.8 7z"/>
    <circle cx="13" cy="13" r="10" fill="#bdfdff"/>
    <path fill="#00e7f0" d="M23 13a10 10 0 01-11.99 9.8 10.005 10.005 0 000-19.6A10 10 0 0123 13z"/>
    <path fill="#91dc5a" d="M19 19v2h-.01A9.9 9.9 0 0113 23c-.34 0-.67-.02-1-.05a9.921 9.921 0 01-4-1.29A9.6 9.6 0 017 21v-2a4 4 0 014-4h4a4 4 0 014 4z"/>
    <path fill="#ffc477" d="M16 10v2a3 3 0 01-6 0v-2a3 3 0 016 0z"/>
    <path fill="#5eac24" d="M19 19v2h-.01A9.9 9.9 0 0113 23c-.34 0-.67-.02-1-.05-.17-.02-.35-.04-.52-.07A9.751 9.751 0 0015.99 21H16v-2a4 4 0 00-4-4h3a4 4 0 014 4z"/>
    <path fill="#ffa733" d="M16 10v2a3 3 0 01-4.5 2.6A3 3 0 0013 12v-2a2.993 2.993 0 00-.88-2.12 3.3 3.3 0 00-.62-.48A3.026 3.026 0 0113 7a3 3 0 013 3z"/>
    <circle cx="51" cy="13" r="10" fill="#bdfdff"/>
    <path fill="#00e7f0" d="M61 13a10 10 0 01-11.99 9.8 10.005 10.005 0 000-19.6A10 10 0 0161 13z"/>
    <path fill="#ffde55" d="M57 19v2h-.01A9.9 9.9 0 0151 23c-.34 0-.67-.02-1-.05a9.921 9.921 0 01-4-1.29 9.6 9.6 0 01-1-.66v-2a4 4 0 014-4h4a4 4 0 014 4z"/>
    <path fill="#ffc477" d="M54 10v2a3 3 0 01-6 0v-2a3 3 0 016 0z"/>
    <path fill="#ebbf00" d="M57 19v2h-.01A9.9 9.9 0 0151 23c-.34 0-.67-.02-1-.05-.17-.02-.35-.04-.52-.07A9.751 9.751 0 0053.99 21H54v-2a4 4 0 00-4-4h3a4 4 0 014 4z"/>
    <path fill="#ffa733" d="M54 10v2a3 3 0 01-4.5 2.6A3 3 0 0051 12v-2a2.993 2.993 0 00-.88-2.12 3.3 3.3 0 00-.62-.48A3.026 3.026 0 0151 7a3 3 0 013 3z"/>
    <circle cx="13" cy="51" r="10" fill="#bdfdff"/>
    <path fill="#00e7f0" d="M23 51a10 10 0 01-11.99 9.8 10.005 10.005 0 000-19.6A10 10 0 0123 51z"/>
    <path fill="#ff3051" d="M19 57v2h-.01A9.9 9.9 0 0113 61c-.34 0-.67-.02-1-.05a9.921 9.921 0 01-4-1.29A9.6 9.6 0 017 59v-2a4 4 0 014-4h4a4 4 0 014 4z"/>
    <path fill="#ffc477" d="M16 48v2a3 3 0 01-6 0v-2a3 3 0 016 0z"/>
    <path fill="#cd2a00" d="M19 57v2h-.01A9.9 9.9 0 0113 61c-.34 0-.67-.02-1-.05-.17-.02-.35-.04-.52-.07A9.751 9.751 0 0015.99 59H16v-2a4 4 0 00-4-4h3a4 4 0 014 4z"/>
    <path fill="#ffa733" d="M16 48v2a3 3 0 01-4.5 2.6A3 3 0 0013 50v-2a2.993 2.993 0 00-.88-2.12 3.3 3.3 0 00-.62-.48A3.026 3.026 0 0113 45a3 3 0 013 3z"/>
    <circle cx="51" cy="51" r="10" fill="#bdfdff"/>
    <path fill="#00e7f0" d="M61 51a10 10 0 01-11.99 9.8 10.005 10.005 0 000-19.6A10 10 0 0161 51z"/>
    <path fill="#57a4ff" d="M57 57v2h-.01A9.9 9.9 0 0151 61c-.34 0-.67-.02-1-.05a9.921 9.921 0 01-4-1.29 9.6 9.6 0 01-1-.66v-2a4 4 0 014-4h4a4 4 0 014 4z"/>
    <path fill="#ffc477" d="M54 48v2a3 3 0 01-6 0v-2a3 3 0 016 0z"/>
    <path fill="#006df0" d="M57 57v2h-.01A9.9 9.9 0 0151 61c-.34 0-.67-.02-1-.05-.17-.02-.35-.04-.52-.07A9.751 9.751 0 0053.99 59H54v-2a4 4 0 00-4-4h3a4 4 0 014 4z"/>
    <path fill="#ffa733" d="M54 48v2a3 3 0 01-4.5 2.6A3 3 0 0051 50v-2a2.993 2.993 0 00-.88-2.12 3.3 3.3 0 00-.62-.48A3.026 3.026 0 0151 45a3 3 0 013 3z"/>
    <path d="M42.49 21.28A15 15 0 1047 32a14.958 14.958 0 00-4.51-10.72zM44.95 31h-5.97a30.925 30.925 0 00-.62-5.43 15.556 15.556 0 003.36-2.17 12.779 12.779 0 013.23 7.6zm-4.66-9a13.191 13.191 0 01-2.43 1.59 14.7 14.7 0 00-1.78-3.92A13.01 13.01 0 0140.29 22zm-13.27 9a29.8 29.8 0 01.51-4.69 14.824 14.824 0 008.94 0 29.8 29.8 0 01.51 4.69zm9.96 2a29.8 29.8 0 01-.51 4.69 14.824 14.824 0 00-8.94 0 29.8 29.8 0 01-.51-4.69zM32 19c1.45 0 3.01 2.03 3.99 5.36a12.758 12.758 0 01-7.98 0C28.99 21.03 30.55 19 32 19zm-4.08.67a14.7 14.7 0 00-1.78 3.92A13.191 13.191 0 0123.71 22a13.01 13.01 0 014.21-2.33zm-5.64 3.73a15.556 15.556 0 003.36 2.17 30.925 30.925 0 00-.62 5.43h-5.97a12.779 12.779 0 013.23-7.6zM19.05 33h5.97a30.925 30.925 0 00.62 5.43 15.556 15.556 0 00-3.36 2.17 12.779 12.779 0 01-3.23-7.6zm4.67 9a12.791 12.791 0 012.42-1.59 14.7 14.7 0 001.78 3.92 12.861 12.861 0 01-4.2-2.33zM32 45c-1.45 0-3.01-2.03-3.99-5.36a12.758 12.758 0 017.98 0C35.01 42.97 33.45 45 32 45zm4.08-.67a14.7 14.7 0 001.78-3.92A13.191 13.191 0 0140.29 42a13.01 13.01 0 01-4.21 2.33zm5.64-3.73a15.556 15.556 0 00-3.36-2.17 30.925 30.925 0 00.62-5.43h5.97a12.779 12.779 0 01-3.23 7.6zM27 11h2v2h-2zM31 11h2v2h-2zM35 11h2v2h-2zM27 51h2v2h-2zM31 51h2v2h-2zM35 51h2v2h-2zM11 27h2v2h-2zM11 31h2v2h-2zM11 35h2v2h-2zM51 27h2v2h-2zM51 31h2v2h-2zM51 35h2v2h-2z"/>
    <path d="M13 2a11 11 0 1011 11A11.007 11.007 0 0013 2zm5 18.48a8.984 8.984 0 01-10 0V19a3.009 3.009 0 013-3h4a3.009 3.009 0 013 3zM11 12v-2a2 2 0 014 0v2a2 2 0 01-4 0zm8.97 6.69a5 5 0 00-3.64-4.49A3.965 3.965 0 0017 12v-2a4 4 0 00-8 0v2a3.965 3.965 0 00.67 2.2 5 5 0 00-3.64 4.49 9 9 0 1113.94 0zM51 2a11 11 0 1011 11A11.007 11.007 0 0051 2zm5 18.48a8.984 8.984 0 01-10 0V19a3.009 3.009 0 013-3h4a3.009 3.009 0 013 3zM49 12v-2a2 2 0 014 0v2a2 2 0 01-4 0zm8.97 6.69a5 5 0 00-3.64-4.49A3.965 3.965 0 0055 12v-2a4 4 0 00-8 0v2a3.965 3.965 0 00.67 2.2 5 5 0 00-3.64 4.49 9 9 0 1113.94 0zM13 40a11 11 0 1011 11 11.007 11.007 0 00-11-11zm5 18.48a8.984 8.984 0 01-10 0V57a3.009 3.009 0 013-3h4a3.009 3.009 0 013 3zM11 50v-2a2 2 0 014 0v2a2 2 0 01-4 0zm8.97 6.69a5 5 0 00-3.64-4.49A3.965 3.965 0 0017 50v-2a4 4 0 00-8 0v2a3.965 3.965 0 00.67 2.2 5 5 0 00-3.64 4.49 9 9 0 1113.94 0zM51 40a11 11 0 1011 11 11.007 11.007 0 00-11-11zm5 18.48a8.984 8.984 0 01-10 0V57a3.009 3.009 0 013-3h4a3.009 3.009 0 013 3zM49 50v-2a2 2 0 014 0v2a2 2 0 01-4 0zm8.97 6.69a5 5 0 00-3.64-4.49A3.965 3.965 0 0055 50v-2a4 4 0 00-8 0v2a3.965 3.965 0 00.67 2.2 5 5 0 00-3.64 4.49 9 9 0 1113.94 0z"/>
</svg>